<svg fill="none" xmlns="http://www.w3.org/2000/svg" viewBox="0 0 20 20">
  <ellipse cx="10" cy="9.89" rx="10" ry="9.89" fill="#1E1A31"/>
  <g fill="#fff">
    <path d="M8.56 9.24c.27 0 .49.22.49.5 0 .26-.22.48-.49.48H7.3c-1.22 0-2.2-1-2.2-2.24 0-1.23.98-2.23 2.2-2.23h3.25c.27 0 .49.22.49.49s-.22.49-.49.49H7.3c-.68 0-1.23.56-1.23 1.25 0 .7.55 1.26 1.23 1.26h1.26z"/>
    <path d="M7.57 10.22a.49.49 0 01-.49-.49c0-.27.22-.49.49-.49h1.26c1.22 0 2.2 1 2.2 2.24 0 1.24-.98 2.24-2.2 2.24H5.58a.49.49 0 01-.49-.5c0-.27.22-.49.49-.49h3.25c.68 0 1.24-.56 1.24-1.25 0-.7-.56-1.26-1.24-1.26H7.57z"/>
    <path d="M5.96 13.52l-.79-.57 4.97-7.02.79.57-4.97 7.02z" fill-opacity=".5"/>
  </g>
  <path fill-rule="evenodd" clip-rule="evenodd" d="M13.97 10.1a.45.45 0 01-.32.16l-.01.56c.17 0 .33-.05.47-.15.14-.1.25-.23.33-.39.07-.17.11-.36.11-.57 0-.19-.03-.37-.1-.54a.9.9 0 00-.32-.37.77.77 0 00-.44-.13c-.17 0-.3.03-.4.11a.68.68 0 00-.24.3c-.05.12-.09.27-.12.45l-.1.39a.5.5 0 01-.09.2.21.21 0 01-.17.06.27.27 0 01-.23-.11.52.52 0 01-.08-.31.5.5 0 01.1-.33.41.41 0 01.29-.15v-.56c-.16 0-.31.05-.44.14a.92.92 0 00-.3.37c-.08.16-.12.33-.12.53s.04.36.11.51c.07.15.17.27.3.36.12.08.26.13.42.13a.7.7 0 00.41-.12.7.7 0 00.24-.29c.05-.12.1-.27.13-.44.02-.13.05-.27.09-.4a.5.5 0 01.1-.2c.04-.04.1-.07.17-.07.1 0 .2.05.25.13.05.09.08.2.08.33a.6.6 0 01-.12.4zm-.58 2.67h-1.57v.58h1.54c.39 0 .68-.1.89-.28.2-.19.3-.46.3-.82 0-.36-.1-.63-.3-.82-.2-.19-.5-.28-.89-.28h-1.54v.57h1.57c.22 0 .39.05.5.13.1.09.16.22.16.4 0 .18-.05.31-.16.4a.82.82 0 01-.5.12zm-1.57-4.45V7.4c0-.26.06-.5.17-.7.11-.2.28-.37.48-.48.2-.1.44-.16.7-.16.27 0 .5.05.7.16.21.11.38.27.49.48.11.2.17.44.17.7v.93h-2.71zm1.99-1.49a.7.7 0 01.24.56v.36H12.3v-.36a.7.7 0 01.24-.56c.16-.13.37-.2.63-.2.27 0 .48.07.64.2z" fill="#000"/>
  <path fill-rule="evenodd" clip-rule="evenodd" d="M13.97 10.1a.45.45 0 01-.32.16l-.01.56c.17 0 .33-.05.47-.15.14-.1.25-.23.33-.39.07-.17.11-.36.11-.57 0-.19-.03-.37-.1-.54a.9.9 0 00-.32-.37.77.77 0 00-.44-.13c-.17 0-.3.03-.4.11a.68.68 0 00-.24.3c-.05.12-.09.27-.12.45l-.1.39a.5.5 0 01-.09.2.21.21 0 01-.17.06.27.27 0 01-.23-.11.52.52 0 01-.08-.31.5.5 0 01.1-.33.41.41 0 01.29-.15v-.56c-.16 0-.31.05-.44.14a.92.92 0 00-.3.37c-.08.16-.12.33-.12.53s.04.36.11.51c.07.15.17.27.3.36.12.08.26.13.42.13a.7.7 0 00.41-.12.7.7 0 00.24-.29c.05-.12.1-.27.13-.44.02-.13.05-.27.09-.4a.5.5 0 01.1-.2c.04-.04.1-.07.17-.07.1 0 .2.05.25.13.05.09.08.2.08.33a.6.6 0 01-.12.4zm-.58 2.67h-1.57v.58h1.54c.39 0 .68-.1.89-.28.2-.19.3-.46.3-.82 0-.36-.1-.63-.3-.82-.2-.19-.5-.28-.89-.28h-1.54v.57h1.57c.22 0 .39.05.5.13.1.09.16.22.16.4 0 .18-.05.31-.16.4a.82.82 0 01-.5.12zm-1.57-4.45V7.4c0-.26.06-.5.17-.7.11-.2.28-.37.48-.48.2-.1.44-.16.7-.16.27 0 .5.05.7.16.21.11.38.27.49.48.11.2.17.44.17.7v.93h-2.71zm1.99-1.49a.7.7 0 01.24.56v.36H12.3v-.36a.7.7 0 01.24-.56c.16-.13.37-.2.63-.2.27 0 .48.07.64.2z" fill="#fff"/>
</svg>
