<svg viewBox="0 0 256 256" xmlns="http://www.w3.org/2000/svg">
  <style>
    .st1{fill:#fff}
  </style>
  <circle cx="128" cy="128" r="128" fill="#2775ca"/>
  <path class="st1" d="M104 217c0 3-2.4 4.7-5.2 3.8a96 96 0 010-183c2.9-.9 5.2.8 5.2 3.8v7.5c0 2-1.5 4.3-3.4 5a80 80 0 000 150.3c1.9.7 3.4 3 3.4 5v7.6z"/>
  <path class="st1" d="M136 189.3a4 4 0 01-4 4h-8a4 4 0 01-4-4v-12.6c-17.5-2.4-26-12.1-28.3-25.5a3.7 3.7 0 013.7-4.3h9.1a4 4 0 013.9 3.2c1.7 7.9 6.3 14 20.3 14 10.3 0 17.7-5.8 17.7-14.4s-4.3-11.9-19.5-14.4c-22.4-3-33-9.8-33-27.3 0-13.5 10.3-24.1 26.1-26.3V69.3a4 4 0 014-4h8a4 4 0 014 4V82c12.9 2.3 21.1 9.6 23.8 21.8a3.7 3.7 0 01-3.7 4.4h-8.4a4 4 0 01-3.8-2.9c-2.3-7.7-7.8-11.1-17.4-11.1-10.6 0-16.1 5.1-16.1 12.3 0 7.6 3.1 11.4 19.4 13.7 22 3 33.4 9.3 33.4 28 0 14.2-10.6 25.7-27.1 28.3v12.8z"/>
  <path class="st1" d="M157.2 220.8c-2.9.9-5.2-.8-5.2-3.8v-7.5c0-2.2 1.3-4.3 3.4-5a80 80 0 000-150.2c-1.9-.7-3.4-3-3.4-5v-7.5c0-3 2.4-4.7 5.2-3.8a96 96 0 010 182.8z"/>
</svg>
