<svg xmlns="http://www.w3.org/2000/svg" viewBox="0 0 20 20">
  <defs>
    <linearGradient x1="25%" y1="6.7%" x2="75%" y2="93.3%" id="a">
      <stop stop-color="#343068" offset="0%"/>
      <stop stop-color="#23204F" offset="100%"/>
    </linearGradient>
  </defs>
  <g fill="none" fill-rule="evenodd">
    <circle fill="url(#a)" fill-rule="nonzero" cx="10" cy="10" r="10"/>
    <path d="M10.8 4.5a5.5 5.5 0 01.2 11H10.4v-2.7h.1c1.8 0 2.2-1.4 2-2.2 0-.8-.2-1-.5-1.2h-.2c-.5-.2-1-.4-1.7-.5-.1 0-.3-.3 0-.3h.8l1.4-.1V7h-1.9V4.5h.4zm-.9 0V7C9 7 8.2 7.3 8 8c-.3 1.6.2 2 .7 2.3l1 .3.3.1.5.1c0 .1 0 .2-.2.2H8v1.6h2v2.7H6.4a1 1 0 01-1-1V5.5c0-.5.3-1 .9-1H10z" fill="#FFF"/>
  </g>
</svg>
