<svg width="330" height="212" viewBox="0 0 330 212" fill="none" xmlns="http://www.w3.org/2000/svg">
<path d="M223.929 82.4444C178.365 82.4444 141.429 45.5328 141.429 0H117.857C117.857 54.3407 158.775 99.1309 211.5 105.28C206.023 152.107 166.186 188.444 117.857 188.444C65.7846 188.444 23.5714 146.26 23.5714 94.2222H0C0 159.269 52.7664 212 117.857 212C179.172 212 229.551 165.209 235.189 105.41C288.477 99.7904 330 54.741 330 0H306.429C306.429 45.5328 269.492 82.4444 223.929 82.4444Z" fill="#50B3B3"/>
<path d="M57.8694 96.1944C30.3921 67.8042 17.6632 41.0508 27.0765 24.7207C33.6074 13.3912 49.8053 8.79762 71.8987 10.2654M88.3337 123.504C103.271 135.31 120.328 146.917 138.983 157.705C169.38 175.282 199.538 188.091 226 195.516M111.806 17.7121C104.211 15.5558 96.9148 13.8402 90 12.5799M250.649 201.049C280.071 205.816 302.04 201.955 309.923 188.279C320.579 169.794 302.862 137.953 267.498 105.5" stroke="#111414" stroke-opacity="0.9" stroke-linejoin="round"/>
<circle cx="72" cy="111" r="12" fill="#F9CA7D"/>
<circle cx="81" cy="10" r="4" fill="#6B6ECE"/>
<circle cx="238" cy="199" r="7" fill="#D2E9FD"/>
</svg>
