<svg width="70" height="75" viewBox="0 0 70 75" fill="none" xmlns="http://www.w3.org/2000/svg">
<path d="M42.9565 7V20.4146H26V29H65" stroke="#D2E9FD" stroke-width="2" stroke-linejoin="round"/>
<path d="M64 28V12H47V41.5H62.5833L59.2778 49H30.5" stroke="#50B2B2" stroke-width="2" stroke-linejoin="round"/>
<path d="M60 11V35H50V52.5H40V65H53" stroke="#F9CA7D" stroke-width="2" stroke-linejoin="round"/>
<rect x="46" y="46" width="8" height="12" stroke="#6B6ECE" stroke-width="2" stroke-linejoin="round"/>
<circle cx="52.5" cy="27.5" r="11.5" stroke="#7FC6CB" stroke-width="2"/>
<path d="M69 26.8161V6.21573L36 1.16471V37.5V73.6282L39.3342 72.5565C51.3739 68.6866 61.062 59.3872 66.0738 47.3483C68.7213 40.9889 69 33.926 69 26.8161Z" stroke="#6B6ECE" stroke-width="2" stroke-linecap="round" stroke-linejoin="round"/>
<path d="M35 0L0 5.35714V26.8161C0 33.9246 0.270954 41.1701 3.00297 47.7327C8.11899 60.0218 18.0209 69.5424 30.3598 73.5085L35 75V0Z" fill="#50B3B3"/>
</svg>
