<svg width="80" height="60" viewBox="0 0 80 60" fill="none" xmlns="http://www.w3.org/2000/svg">
<rect x="27" y="14" width="48" height="8" rx="4" fill="#D2E9FD"/>
<rect x="5" y="38" width="63" height="8" rx="4" fill="#D2E9FD"/>
<rect x="72" y="38" width="8" height="8" rx="4" fill="#6B6ECE"/>
<rect x="10" y="14" width="13" height="8" rx="4" fill="#F9CA7D"/>
<rect x="16" y="6" width="64" height="4" rx="2" fill="#6B6ECE"/>
<rect y="50" width="32" height="4" rx="2" fill="#B4F5EE"/>
<rect x="36" y="50" width="39" height="4" rx="2" fill="#F9CA7D"/>
<rect x="5" width="32" height="2" rx="1" fill="#D2E9FD"/>
<rect x="5" y="58" width="70" height="2" rx="1" fill="#7FC6CB"/>
<rect x="41" width="34" height="2" rx="1" fill="#50B3B3"/>
<path d="M61.4393 31.24C61.3913 31.22 61.3433 31.2 61.2952 31.184V34.736C61.8073 34.672 62.2233 34.528 62.5752 34.304C63.0233 33.984 63.2633 33.552 63.2633 32.992C63.2633 32.256 62.7033 31.68 61.5833 31.296C61.5353 31.28 61.4873 31.26 61.4393 31.24Z" fill="#50B3B3"/>
<path d="M60.2603 29.11C60.2713 29.1145 60.2845 29.12 60.3032 29.12V25.808C59.8553 25.84 59.4873 25.968 59.2153 26.16C58.7673 26.448 58.5592 26.896 58.5592 27.504C58.5592 28.16 59.1193 28.688 60.2393 29.104C60.2459 29.104 60.2525 29.1067 60.2603 29.11Z" fill="#50B3B3"/>
<path fill-rule="evenodd" clip-rule="evenodd" d="M12 18C5.37258 18 0 23.3726 0 30C0 36.6274 5.37258 42 12 42H68C74.6274 42 80 36.6274 80 30C80 23.3726 74.6274 18 68 18H12ZM10.5157 25.712C11.0917 25.36 11.5717 24.992 11.9557 24.576H13.2677V36H11.5238V26.672C10.8357 27.328 9.95575 27.808 8.89975 28.112V26.384C9.41175 26.256 9.93975 26.032 10.5157 25.712ZM16.743 35.072C15.911 34.272 15.495 33.136 15.495 31.648V24.576H17.239V31.68C17.239 32.704 17.463 33.456 17.943 33.952C18.423 34.448 19.175 34.704 20.215 34.704C21.239 34.704 21.991 34.448 22.471 33.952C22.935 33.456 23.175 32.704 23.175 31.68V24.576H24.919V31.648C24.919 33.136 24.503 34.272 23.687 35.056C22.871 35.824 21.719 36.224 20.215 36.224C18.695 36.224 17.543 35.84 16.743 35.072ZM27.9993 35.072C27.1672 34.272 26.7513 33.136 26.7513 31.648V24.576H28.4953V31.68C28.4953 32.704 28.7192 33.456 29.1993 33.952C29.6793 34.448 30.4313 34.704 31.4713 34.704C32.4953 34.704 33.2472 34.448 33.7272 33.952C34.1912 33.456 34.4313 32.704 34.4313 31.68V24.576H36.1753V31.648C36.1753 33.136 35.7593 34.272 34.9433 35.056C34.1273 35.824 32.9753 36.224 31.4713 36.224C29.9513 36.224 28.7993 35.84 27.9993 35.072ZM42.6156 30.912V29.504H50.6956V30.912H42.6156ZM42.6156 34.224V32.816H50.6956V34.224H42.6156ZM58.0153 25.104C58.6232 24.656 59.3753 24.416 60.3032 24.368V23.056H61.2952V24.368C62.2552 24.432 63.0073 24.704 63.5833 25.168C64.2393 25.68 64.6393 26.528 64.7992 27.68H63.1032C63.0073 26.992 62.7513 26.496 62.3512 26.208C62.0793 26 61.7272 25.872 61.2952 25.824V29.488C62.4793 29.936 63.1673 30.208 63.3273 30.272C64.4313 30.896 64.9912 31.776 64.9912 32.928C64.9912 34.064 64.5592 34.912 63.7272 35.488C63.0872 35.904 62.2873 36.144 61.2952 36.208V37.616H60.3032V36.208C59.2153 36.144 58.3833 35.824 57.8073 35.264C57.1353 34.624 56.7673 33.664 56.6712 32.352H58.3993C58.4632 33.216 58.6712 33.84 59.0553 34.208C59.3433 34.496 59.7593 34.672 60.3032 34.736V30.832L58.4953 30.16C57.3753 29.568 56.8153 28.688 56.8153 27.504C56.8153 26.464 57.2152 25.664 58.0153 25.104ZM67.497 25.712C68.073 25.36 68.553 24.992 68.937 24.576H70.249V36H68.505V26.672C67.817 27.328 66.937 27.808 65.881 28.112V26.384C66.393 26.256 66.921 26.032 67.497 25.712Z" fill="#50B3B3"/>
</svg>
