<svg width="80" height="80" viewBox="0 0 80 80" fill="none" xmlns="http://www.w3.org/2000/svg">
<circle cx="30" cy="50" r="29" stroke="#F9CA7D" stroke-width="2"/>
<circle cx="40" cy="40" r="30" fill="#6B6ECE"/>
<circle cx="50" cy="30" r="30" fill="#50B3B3"/>
<path d="M57.5 30C51.701 30 47 25.299 47 19.5H44C44 26.4207 49.2077 32.1252 55.9182 32.9083C55.2211 38.8721 50.151 43.5 44 43.5C37.3726 43.5 32 38.1274 32 31.5H29C29 39.7843 35.7157 46.5 44 46.5C51.8037 46.5 58.2156 40.5408 58.9332 32.9248C65.7153 32.2092 71 26.4717 71 19.5H68C68 25.299 63.299 30 57.5 30Z" fill="white"/>
</svg>
