<svg width="16" height="14" viewBox="0 0 16 14" fill="none" xmlns="http://www.w3.org/2000/svg">
<path d="M15.9285 0.628601C16.1336 1.14138 15.8842 1.72335 15.3714 1.92847L12.0392 3.26135C10.7131 3.79177 9.22356 3.72981 7.94615 3.0911L7.15941 2.69773C6.39296 2.31451 5.49922 2.27733 4.70359 2.59558L1.37138 3.92847C0.858598 4.13358 0.276628 3.88417 0.0715147 3.37138C-0.133599 2.8586 0.115817 2.27663 0.628601 2.07151L3.96081 0.738631C5.28685 0.208215 6.77642 0.270172 8.05383 0.908878L8.84058 1.30225C9.60702 1.68547 10.5008 1.72265 11.2964 1.4044L14.6286 0.0715147C15.1414 -0.133599 15.7234 0.115817 15.9285 0.628601Z" fill="#50B3B3"/>
<path d="M15.9285 5.6286C16.1336 6.14138 15.8842 6.72335 15.3714 6.92847L12.0392 8.26135C10.7131 8.79177 9.22356 8.72981 7.94615 8.09111L7.15941 7.69773C6.39296 7.31451 5.49922 7.27733 4.70359 7.59558L1.37138 8.92847C0.858598 9.13358 0.276628 8.88417 0.0715147 8.37138C-0.133599 7.8586 0.115817 7.27663 0.628601 7.07151L3.96081 5.73863C5.28685 5.20821 6.77642 5.27017 8.05383 5.90888L8.84058 6.30225C9.60702 6.68547 10.5008 6.72265 11.2964 6.4044L14.6286 5.07151C15.1414 4.8664 15.7234 5.11582 15.9285 5.6286Z" fill="#50B3B3"/>
<path d="M15.3714 11.9285C15.8842 11.7234 16.1336 11.1414 15.9285 10.6286C15.7234 10.1158 15.1414 9.8664 14.6286 10.0715L11.2964 11.4044C10.5008 11.7226 9.60702 11.6855 8.84058 11.3023L8.05383 10.9089C6.77642 10.2702 5.28685 10.2082 3.96081 10.7386L0.628601 12.0715C0.115817 12.2766 -0.133599 12.8586 0.0715147 13.3714C0.276628 13.8842 0.858598 14.1336 1.37138 13.9285L4.70359 12.5956C5.49922 12.2773 6.39296 12.3145 7.15941 12.6977L7.94615 13.0911C9.22356 13.7298 10.7131 13.7918 12.0392 13.2614L15.3714 11.9285Z" fill="#50B3B3"/>
</svg>
