<svg width="40" height="40" viewBox="0 0 40 40" fill="none" xmlns="http://www.w3.org/2000/svg">
<path fill-rule="evenodd" clip-rule="evenodd" d="M7.74857 3H32.2514C34.3177 3 36 4.68229 36 6.76686V39.5714L32.0686 36.0971L29.856 34.0491L27.5154 31.8731L28.4846 35.256H7.74857C5.68229 35.256 4 33.5737 4 31.4891V6.76686C4 4.68229 5.68229 3 7.74857 3ZM23.9863 25.4C24.5349 26.0949 25.1931 26.8811 25.1931 26.8811C29.2343 26.7531 30.7886 24.1017 30.7886 24.1017C30.7886 18.2137 28.1554 13.4411 28.1554 13.4411C25.5223 11.4663 23.0171 11.5211 23.0171 11.5211L22.7611 11.8137C25.8697 12.7646 27.3143 14.136 27.3143 14.136C25.4126 13.0937 23.5474 12.5817 21.8103 12.3806C20.4937 12.2343 19.232 12.2709 18.1166 12.4171C18.0208 12.4171 17.9389 12.4311 17.8467 12.4468C17.8333 12.4491 17.8196 12.4514 17.8057 12.4537C17.1657 12.5086 15.6114 12.7463 13.6549 13.6057C12.9783 13.9166 12.576 14.136 12.576 14.136C12.576 14.136 14.0937 12.6914 17.3851 11.7406L17.2023 11.5211C17.2023 11.5211 14.6971 11.4663 12.064 13.4411C12.064 13.4411 9.43086 18.2137 9.43086 24.1017C9.43086 24.1017 10.9669 26.7531 15.008 26.8811C15.008 26.8811 15.6846 26.0583 16.2331 25.3634C13.9109 24.6686 13.0331 23.2057 13.0331 23.2057C13.0331 23.2057 13.216 23.3337 13.5451 23.5166C13.5634 23.5349 13.5817 23.5531 13.6183 23.5714C13.6457 23.5897 13.6731 23.6034 13.7006 23.6171C13.728 23.6309 13.7554 23.6446 13.7829 23.6629C14.24 23.9189 14.6971 24.12 15.1177 24.2846C15.8674 24.5771 16.7634 24.8697 17.8057 25.0709C19.1771 25.3269 20.7863 25.4183 22.5417 25.0891C23.4011 24.9429 24.2789 24.6869 25.1931 24.3029C25.8331 24.0651 26.5463 23.7177 27.296 23.224C27.296 23.224 26.3817 24.7234 23.9863 25.4ZM14.8251 20.3714C14.8251 19.256 15.648 18.3417 16.6902 18.3417C17.7325 18.3417 18.5737 19.256 18.5554 20.3714C18.5554 21.4869 17.7325 22.4011 16.6902 22.4011C15.6662 22.4011 14.8251 21.4869 14.8251 20.3714ZM21.4994 20.3714C21.4994 19.256 22.3222 18.3417 23.3645 18.3417C24.4068 18.3417 25.2297 19.256 25.2297 20.3714C25.2297 21.4869 24.4068 22.4011 23.3645 22.4011C22.3405 22.4011 21.4994 21.4869 21.4994 20.3714Z" fill="#7789D4"/>
</svg>
