<svg width="40" height="40" viewBox="0 0 40 40" fill="none" xmlns="http://www.w3.org/2000/svg">
<path d="M20.0001 1.4C9.50256 1.4 1.00006 9.90725 1.00006 20.4C1.00006 28.7964 6.44356 35.9167 13.9913 38.4262C14.9413 38.6052 15.2896 38.0177 15.2896 37.5127C15.2896 37.0614 15.2738 35.866 15.2659 34.2827C9.98073 35.429 8.86606 31.7335 8.86606 31.7335C8.00156 29.5406 6.75231 28.9548 6.75231 28.9548C5.03123 27.7768 6.88531 27.8005 6.88531 27.8005C8.79323 27.9335 9.79548 29.7575 9.79548 29.7575C11.4896 32.6629 14.2431 31.8237 15.3292 31.3377C15.5002 30.109 15.9895 29.2714 16.5326 28.7964C12.313 28.3214 7.87806 26.6874 7.87806 19.4072C7.87806 17.3331 8.61431 15.6389 9.83348 14.3089C9.61973 13.8292 8.97848 11.8975 9.99973 9.28025C9.99973 9.28025 11.591 8.77042 15.2247 11.2278C16.7447 10.805 18.3597 10.596 19.9747 10.5865C21.5897 10.596 23.2047 10.805 24.7247 11.2278C28.3347 8.77042 29.926 9.28025 29.926 9.28025C30.9472 11.8975 30.306 13.8292 30.116 14.3089C31.3272 15.6389 32.0635 17.3331 32.0635 19.4072C32.0635 26.7064 27.6222 28.3135 23.3947 28.7806C24.0597 29.3506 24.6772 30.5159 24.6772 32.2956C24.6772 34.8384 24.6535 36.8809 24.6535 37.4984C24.6535 37.9972 24.986 38.5909 25.9597 38.4009C33.5613 35.9087 39.0001 28.7837 39.0001 20.4C39.0001 9.90725 30.4928 1.4 20.0001 1.4Z" fill="black"/>
</svg>
