<svg width="40" height="40" viewBox="0 0 40 40" fill="none" xmlns="http://www.w3.org/2000/svg">
<path fill-rule="evenodd" clip-rule="evenodd" d="M22.5624 20.3773C22.5624 26.6608 17.5116 31.755 11.281 31.755C5.05038 31.755 0 26.6624 0 20.3773C0 14.0922 5.05076 9 11.281 9C17.5112 9 22.5624 14.0937 22.5624 20.3773ZM34.9382 20.3774C34.9382 26.2927 32.4127 31.0875 29.2975 31.0875C26.1825 31.0875 23.6569 26.2911 23.6569 20.3774C23.6569 14.4638 26.1825 9.66744 29.2975 9.66744C32.4127 9.66744 34.9382 14.4638 34.9382 20.3774ZM38.0162 29.9732C39.1118 29.9732 40.0001 25.6772 40.0001 20.3775C40.0001 15.0781 39.1125 10.7817 38.0165 10.7817C36.9206 10.7817 36.0322 15.0793 36.0322 20.3775C36.0322 25.6757 36.9206 29.9732 38.0162 29.9732Z" fill="black"/>
</svg>
