<svg width="40" height="40" viewBox="0 0 40 40" fill="none" xmlns="http://www.w3.org/2000/svg">
<path d="M20 39C30.4934 39 39 30.4934 39 20C39 9.50659 30.4934 1 20 1C9.50659 1 1 9.50659 1 20C1 30.4934 9.50659 39 20 39Z" fill="#37AEE2"/>
<path d="M8.90749 19.8352L21.7023 14.5636C22.9653 14.0144 27.2485 12.2572 27.2485 12.2572C27.2485 12.2572 29.2254 11.4884 29.0607 13.3555C29.0058 14.1243 28.5665 16.815 28.1271 19.7254L26.7543 28.3468C26.7543 28.3468 26.6445 29.6098 25.711 29.8295C24.7774 30.0491 23.2399 29.0607 22.9653 28.841C22.7456 28.6763 18.8468 26.2052 17.4191 24.9971C17.0347 24.6676 16.5954 24.0086 17.474 23.2399C19.4508 21.4277 21.8121 19.1763 23.2399 17.7485C23.8988 17.0896 24.5578 15.552 21.8121 17.4191L14.0693 22.6358C14.0693 22.6358 13.1907 23.1849 11.5433 22.6907C9.89593 22.1965 7.97397 21.5375 7.97397 21.5375C7.97397 21.5375 6.65605 20.7138 8.90749 19.8352Z" fill="white"/>
</svg>
