<svg width="40" height="40" viewBox="0 0 40 40" fill="none" xmlns="http://www.w3.org/2000/svg">
<path fill-rule="evenodd" clip-rule="evenodd" d="M13.3213 35C26.9062 35 34.3366 23.4572 34.3366 13.4473C34.3366 13.1195 34.3366 12.7931 34.315 12.4682C35.7606 11.3959 37.0084 10.0682 38 8.54727C36.652 9.15985 35.222 9.56159 33.7578 9.73906C35.2996 8.79239 36.4536 7.30345 37.005 5.54933C35.5551 6.43166 33.9689 7.05349 32.3149 7.38797C30.0254 4.89125 26.3874 4.28017 23.441 5.89739C20.4945 7.5146 18.9722 10.9579 19.7278 14.2965C13.7891 13.9912 8.25605 11.1145 4.5056 6.38225C2.54522 9.84339 3.54654 14.2712 6.79232 16.494C5.61691 16.4583 4.46712 16.1331 3.44 15.5459C3.44 15.5769 3.44 15.6094 3.44 15.6419C3.44096 19.2477 5.91932 22.3533 9.3656 23.0673C8.27821 23.3715 7.13732 23.4159 6.03056 23.1973C6.99817 26.283 9.77107 28.3968 12.931 28.4577C10.3156 30.5658 7.08473 31.7101 3.75824 31.7067C3.17058 31.7055 2.58349 31.6691 2 31.5974C5.37772 33.8204 9.30788 34.9996 13.3213 34.9941" fill="#62A0E6"/>
</svg>
