<svg width="40" height="40" viewBox="0 0 40 40" fill="none" xmlns="http://www.w3.org/2000/svg">
<path fill-rule="evenodd" clip-rule="evenodd" d="M26.53 14.5185C19.5 14.5185 13.95 19.1482 13.95 24.8889C13.95 26 14.135 27.1111 14.69 28.2222H14.32C12.84 28.2222 11.545 28.037 10.25 27.6667L5.995 29.7037L7.105 26.3704C3.405 24.5185 1 21 1 17.1111C1 11 6.92 6 14.32 6C20.61 6 25.605 9.7037 27.085 14.5185H26.53ZM21.35 12.2963C21.35 11 20.24 9.88889 18.945 9.88889C17.65 9.88889 16.54 10.8148 16.54 12.1111C16.54 13.4074 17.65 14.5185 18.945 14.7037C20.24 14.7037 21.35 13.5926 21.35 12.2963ZM7.66 12.1111C7.66 13.4074 8.585 14.5185 9.88 14.5185C11.175 14.5185 12.285 13.4074 12.285 12.1111C12.285 10.8148 11.36 9.7037 10.065 9.7037C8.77 9.7037 7.66 10.8148 7.66 12.1111ZM26.9 16C33.0051 16 38.0001 20.0741 38.0001 25.2593C38.0001 28.5926 35.965 31.3704 32.8201 33.2222L33.745 36L30.2301 34.1482C29.1201 34.3333 28.01 34.5185 26.9 34.5185C20.795 34.5185 15.8 30.4444 15.8 25.2593C15.8 20.0741 20.795 16 26.9 16ZM21.1651 21.9259C21.1651 23.037 21.9051 23.7778 23.0151 23.7778C23.9401 23.7778 24.865 22.8519 24.865 21.9259C24.865 20.8148 24.125 20.0741 23.0151 20.0741C21.9051 20.0741 21.1651 20.8148 21.1651 21.9259ZM28.75 21.9259C28.75 23.037 29.4901 23.7778 30.6 23.7778C31.5251 23.7778 32.4501 22.8519 32.4501 21.9259C32.4501 20.8148 31.7101 20.0741 30.6 20.0741C29.4901 20.0741 28.75 20.8148 28.75 21.9259Z" fill="#4CBF00"/>
</svg>
