<svg width="20" height="20" viewBox="0 0 20 20" fill="none" xmlns="http://www.w3.org/2000/svg">
<g id="minor/language">
<path id="&#229;&#189;&#162;&#231;&#138;&#182;" fill-rule="evenodd" clip-rule="evenodd" d="M13.0006 7.99978L13.1405 8.00966L13.2514 8.03194L13.3773 8.07386L13.4472 8.10557L13.5176 8.1443L13.6023 8.20148L13.7013 8.28671L13.7661 8.35694L13.8181 8.42458L13.8659 8.49958L13.8944 8.55279L17.8944 16.5528C18.1414 17.0468 17.9412 17.6474 17.4472 17.8944C16.9885 18.1238 16.4378 17.9675 16.1637 17.5485L16.1056 17.4472L15.3808 15.9998H10.6178L9.89443 17.4472C9.66508 17.9059 9.13077 18.1113 8.6601 17.9406L8.55279 17.8944C8.09409 17.6651 7.88869 17.1308 8.05944 16.6601L8.10557 16.5528L12.1353 8.49742L12.2113 8.38489L12.2925 8.29291L12.356 8.23471L12.4078 8.19396L12.522 8.12153L12.5979 8.08437L12.6953 8.04754L12.7836 8.02345L12.8895 8.00585L13.0006 7.99978ZM8 2C8.55228 2 9 2.44772 9 3V4H13C13.5523 4 14 4.44772 14 5C14 5.55228 13.5523 6 13 6H12.414L8.414 10L9.24264 10.8284C9.63316 11.219 9.63316 11.8521 9.24264 12.2426C8.85212 12.6332 8.21895 12.6332 7.82843 12.2426L7 11.414L3.70711 14.7071C3.34662 15.0676 2.77939 15.0953 2.3871 14.7903L2.29289 14.7071C1.93241 14.3466 1.90468 13.7794 2.2097 13.3871L2.29289 13.2929L5.585 9.999L4.29289 8.70711C3.90237 8.31658 3.90237 7.68342 4.29289 7.29289C4.68342 6.90237 5.31658 6.90237 5.70711 7.29289L6.999 8.585L9.584 6H3C2.44772 6 2 5.55228 2 5C2 4.44772 2.44772 4 3 4H7V3C7 2.44772 7.44772 2 8 2ZM12.9998 11.2358L11.6178 13.9998H14.3808L12.9998 11.2358Z" fill="#111414" fill-opacity="0.9"/>
</g>
</svg>
