<svg width="20" height="20" viewBox="0 0 20 20" fill="none" xmlns="http://www.w3.org/2000/svg">
<g id="minor/menu">
<path id="&#229;&#189;&#162;&#231;&#138;&#182;" fill-rule="evenodd" clip-rule="evenodd" d="M17 16C17.5523 16 18 16.4477 18 17C18 17.5523 17.5523 18 17 18H3C2.44772 18 2 17.5523 2 17C2 16.4477 2.44772 16 3 16H17ZM17 9C17.5523 9 18 9.44772 18 10C18 10.5523 17.5523 11 17 11H3C2.44772 11 2 10.5523 2 10C2 9.44772 2.44772 9 3 9H17ZM17 2C17.5523 2 18 2.44772 18 3C18 3.55228 17.5523 4 17 4H3C2.44772 4 2 3.55228 2 3C2 2.44772 2.44772 2 3 2H17Z" fill="#111414" fill-opacity="0.9"/>
</g>
</svg>
