<svg width="230" height="74" viewBox="0 0 230 74" fill="none" xmlns="http://www.w3.org/2000/svg">
<path d="M10.5052 74C3.80966 61.9536 0 48.1091 0 33.3822H17C17 48.6343 22.1078 62.7035 30.72 74H10.5052Z" fill="#111414" fill-opacity="0.03"/>
<path d="M220.651 74H219.805C214.327 64.0498 204.997 52.9467 192.672 41.7252L193.174 41.1792C205.678 52.5644 215.147 63.861 220.651 74Z" fill="#111414" fill-opacity="0.03"/>
<path d="M229.882 0C218.456 22.5221 196.044 38.6231 169.622 41.3876C168.506 53.1251 164.963 64.1622 159.495 74H139.28C146.381 64.6861 151.099 53.4874 152.537 41.2949C126.481 38.2798 104.423 22.2825 93.1178 0L112.898 0C123.674 15.0981 141.426 24.9545 161.5 24.9545C181.574 24.9545 199.326 15.0981 210.102 0H229.882Z" fill="#111414" fill-opacity="0.03"/>
<path d="M92.8363 74C82.3362 67.5968 72.6369 60.8667 63.9375 54.0448L63.4771 54.626C71.9149 61.2427 81.2885 67.7717 91.4173 74H92.8363Z" fill="#111414" fill-opacity="0.03"/>
<path d="M18.068 0H18.8402C19.3769 1.87733 20.0971 3.82516 20.9946 5.83495C24.8938 14.5665 32.1112 24.3954 42.0029 34.5357L41.4692 35.0511C31.544 24.8764 24.2628 14.9759 20.3149 6.13542C19.3748 4.03035 18.6221 1.98129 18.068 0Z" fill="#111414" fill-opacity="0.03"/>
<path d="M60.5819 45.3878C60.5819 50.1302 56.7071 53.9746 51.9273 53.9746C47.1475 53.9746 43.2728 50.1302 43.2728 45.3878C43.2728 40.6455 47.1475 36.801 51.9273 36.801C56.7071 36.801 60.5819 40.6455 60.5819 45.3878Z" fill="#111414" fill-opacity="0.03"/>
</svg>
