<svg width="20" height="20" viewBox="0 0 20 20" fill="none" xmlns="http://www.w3.org/2000/svg">
<path fill-rule="evenodd" clip-rule="evenodd" d="M10.7623 9.66581C11.989 9.68053 12.9757 10.6792 12.9757 11.906C12.9757 13.1328 11.989 14.1314 10.7623 14.1461H7.48032C7.21345 14.1393 7.00066 13.921 7.00066 13.654C7.00066 13.3871 7.21345 13.1688 7.48032 13.1619H10.7623C11.4559 13.1619 12.0182 12.5996 12.0182 11.906C12.0182 11.2123 11.4559 10.65 10.7623 10.65H9.22161C7.99489 10.6353 7.00817 9.63665 7.00817 8.40984C7.00817 7.18303 7.99489 6.1844 9.22161 6.16968H12.5032C12.7701 6.17651 12.9829 6.39482 12.9829 6.66177C12.9829 6.92873 12.7701 7.14704 12.5032 7.15387H9.22161C8.52796 7.15387 7.96564 7.71619 7.96564 8.40984C7.96564 9.10349 8.52796 9.66581 9.22161 9.66581H10.7623Z" fill="white"/>
<path d="M11.5742 6.73796C11.7189 6.50278 12.0269 6.42945 12.2621 6.57418C12.4711 6.70282 12.5523 6.96046 12.4661 7.18129L12.4258 7.26206L8.42583 13.7621C8.28111 13.9972 7.97313 14.0706 7.73795 13.9258C7.5289 13.7972 7.44774 13.5396 7.53393 13.3187L7.57417 13.238L11.5742 6.73796Z" fill="white" fill-opacity="0.5"/>
<circle cx="10" cy="10" r="10" fill="#FF2C7E"/>
<path fill-rule="evenodd" clip-rule="evenodd" d="M8.81928 5.79544L9.24908 8.66165L6.28818 8.93816L6.20365 8.03301L7.88439 7.87603C7.54047 7.66672 7.13659 7.54617 6.70455 7.54617C5.44935 7.54617 4.43182 8.56371 4.43182 9.8189C4.43182 11.0741 5.44935 12.0916 6.70455 12.0916C7.63646 12.0916 8.43738 11.5307 8.78811 10.7281L9.75457 10.7281C9.36338 12.0424 8.14588 13.0007 6.70455 13.0007C4.94728 13.0007 3.52273 11.5762 3.52273 9.8189C3.52273 8.06163 4.94728 6.63708 6.70455 6.63708C7.19426 6.63708 7.65813 6.74771 8.07253 6.94535L7.92024 5.93026L8.81928 5.79544ZM13.2955 6.63708C15.0527 6.63708 16.4773 8.06163 16.4773 9.8189C16.4773 11.5762 15.0527 13.0007 13.2955 13.0007C12.8672 13.0007 12.4586 12.9161 12.0857 12.7627L12.4385 13.8793L11.5716 14.1531L10.6987 11.3894L13.5799 10.6531L13.805 11.5339L12.3776 11.8987C12.6583 12.0227 12.9688 12.0916 13.2955 12.0916C14.5506 12.0916 15.5682 11.0741 15.5682 9.8189C15.5682 8.56371 14.5506 7.54617 13.2955 7.54617C12.3201 7.54617 11.4883 8.16056 11.1658 9.02344L10 9.02344C10 9.02344 10.4348 8.38536 10.6134 8.10633C11.1787 7.22278 12.1687 6.63708 13.2955 6.63708ZM14.0909 10.2734V9.36435H5.90909V10.2734H14.0909Z" fill="white"/>
</svg>
