<svg width="20" height="20" viewBox="0 0 20 20" fill="none" xmlns="http://www.w3.org/2000/svg">
<path fill-rule="evenodd" clip-rule="evenodd" d="M19.6393 7.34948C21.1043 12.6725 17.9744 18.1756 12.6496 19.6396C7.32484 21.1036 1.82307 17.9756 0.360133 12.6515C-1.10281 7.32748 2.02306 1.82444 7.34784 0.360424C12.6726 -1.10359 18.1744 2.02444 19.6393 7.34948Z" fill="#50B3B3"/>
<path d="M7.9459 6.10242C8.16564 6.90088 7.69616 7.72633 6.89744 7.94594C6.09873 8.16554 5.27346 7.69633 5.05402 6.89773C4.83458 6.09912 5.30346 5.27367 6.10218 5.05406C6.90089 4.83446 7.72616 5.30367 7.9459 6.10242Z" fill="white"/>
<path d="M7.9459 13.1024C8.16564 13.9009 7.69616 14.7263 6.89744 14.9459C6.09873 15.1655 5.27346 14.6963 5.05402 13.8977C4.83458 13.0991 5.30346 12.2737 6.10218 12.0541C6.90089 11.8345 7.72616 12.3037 7.9459 13.1024Z" fill="white"/>
<path d="M13.8974 14.9459C14.6962 14.7263 15.1656 13.9009 14.9459 13.1024C14.7262 12.3037 13.9009 11.8345 13.1022 12.0541C12.3035 12.2737 11.8346 13.0991 12.054 13.8977C12.2735 14.6963 13.0987 15.1655 13.8974 14.9459Z" fill="white"/>
<path d="M14.9459 6.10242C15.1656 6.90088 14.6962 7.72633 13.8974 7.94594C13.0987 8.16554 12.2735 7.69633 12.054 6.89773C11.8346 6.09912 12.3035 5.27367 13.1022 5.05406C13.9009 4.83446 14.7262 5.30367 14.9459 6.10242Z" fill="white"/>
<path d="M10.5299 11.9279C11.5949 11.6351 12.2209 10.5345 11.9279 9.4699C11.6349 8.40489 10.5345 7.77928 9.46957 8.07208C8.40461 8.36489 7.77944 9.4655 8.07203 10.5303C8.36461 11.5951 9.46497 12.2207 10.5299 11.9279Z" fill="white"/>
</svg>
