<svg width="20" height="20" viewBox="0 0 20 20" fill="none" xmlns="http://www.w3.org/2000/svg">
<circle cx="10" cy="10" r="10" fill="#2775CA"/>
<path fill-rule="evenodd" clip-rule="evenodd" d="M8.125 16.9531C8.125 17.1875 7.9375 17.3203 7.71875 17.25C4.6875 16.2812 2.5 13.4531 2.5 10.1016C2.5 6.7578 4.6875 3.92186 7.71875 2.95311C7.94531 2.8828 8.125 3.01561 8.125 3.24999V3.83593C8.125 3.99218 8.00781 4.17186 7.85938 4.22655C5.46094 5.10936 3.75 7.41405 3.75 10.1016C3.75 12.7969 5.46094 15.0937 7.85938 15.9687C8.00781 16.0234 8.125 16.2031 8.125 16.3594V16.9531ZM10.625 14.7891C10.625 14.9609 10.4844 15.1016 10.3125 15.1016H9.6875C9.51562 15.1016 9.375 14.9609 9.375 14.7891V13.8047C8.00781 13.6172 7.34375 12.8594 7.16406 11.8125C7.13281 11.6328 7.27344 11.4766 7.45312 11.4766H8.16406C8.3125 11.4766 8.4375 11.5859 8.46875 11.7266C8.60156 12.3437 8.96094 12.8203 10.0547 12.8203C10.8594 12.8203 11.4375 12.3672 11.4375 11.6953C11.4375 11.0234 11.1016 10.7656 9.91406 10.5703C8.16406 10.3359 7.33594 9.80468 7.33594 8.43749C7.33594 7.3828 8.14062 6.55468 9.375 6.3828V5.41405C9.375 5.24218 9.51562 5.10155 9.6875 5.10155H10.3125C10.4844 5.10155 10.625 5.24218 10.625 5.41405V6.40624C11.6328 6.58593 12.2734 7.15624 12.4844 8.10936C12.5234 8.28905 12.3828 8.45311 12.1953 8.45311H11.5391C11.3984 8.45311 11.2812 8.35936 11.2422 8.22655C11.0625 7.62499 10.6328 7.35936 9.88281 7.35936C9.05469 7.35936 8.625 7.7578 8.625 8.3203C8.625 8.91405 8.86719 9.21093 10.1406 9.39061C11.8594 9.62499 12.75 10.1172 12.75 11.5781C12.75 12.6875 11.9219 13.5859 10.6328 13.7891V14.7891H10.625ZM11.875 16.9531C11.875 17.1875 12.0547 17.3203 12.2812 17.25C15.3125 16.2812 17.5 13.4531 17.5 10.1016C17.5 6.7578 15.3125 3.92186 12.2812 2.96874C12.0625 2.89843 11.875 3.03124 11.875 3.26561V3.85155C11.875 4.0078 11.9922 4.18749 12.1406 4.24218C14.5391 5.11718 16.25 7.41405 16.25 10.1094C16.25 12.7969 14.5312 15.1016 12.1406 15.9766C11.9766 16.0312 11.875 16.1953 11.875 16.3672V16.9531Z" fill="white"/>
</svg>
