<svg width="20" height="20" viewBox="0 0 20 20" fill="none" xmlns="http://www.w3.org/2000/svg">
<path fill-rule="evenodd" clip-rule="evenodd" d="M19.6393 7.34948C21.1043 12.6725 17.9744 18.1756 12.6496 19.6396C7.32484 21.1036 1.82307 17.9756 0.360133 12.6515C-1.10281 7.32748 2.02306 1.82444 7.34784 0.360424C12.6726 -1.10359 18.1744 2.02444 19.6393 7.34948Z" fill="#26A17B"/>
<path fill-rule="evenodd" clip-rule="evenodd" d="M5.42531 5H14.5826V7.23011H11.2197V8.69376L11.7567 8.72464C14.2133 8.89176 16 9.40088 16 10.0027C16 10.6476 13.9489 11.186 11.2205 11.3113V16H8.78861V11.3117C6.05622 11.186 4 10.6472 4 10.0018C4 9.39934 5.79033 8.88984 8.25139 8.72299L8.78861 8.69258V7.23011H5.42531V5ZM11.2209 8.86338V10.4976C11.169 10.5024 10.9439 10.521 10.5183 10.5301L10.0247 10.535C9.71253 10.535 9.44334 10.5284 9.23243 10.5204L8.7898 10.4976V8.86338C6.37513 8.97004 4.57238 9.388 4.57238 9.8888C4.57238 10.3896 6.37493 10.8082 8.7898 10.9146V10.9126C8.91428 10.9191 9.22173 10.9317 9.66103 10.9365L10.3465 10.9371C10.5986 10.9349 10.7901 10.9305 10.9295 10.926L11.7274 10.8856C13.8781 10.7461 15.4294 10.3516 15.4294 9.88821C15.4294 9.42482 13.8787 9.03049 11.7275 8.89097L11.2209 8.86338Z" fill="white"/>
</svg>
