<svg width="20" height="20" viewBox="0 0 20 20" fill="none" xmlns="http://www.w3.org/2000/svg">
<ellipse cx="10" cy="9.89" rx="10" ry="9.89" fill="#1E1A31"/>
<path d="M8.56334 9.23966C8.831 9.23966 9.04834 9.45966 9.04834 9.73166C9.04834 10.0033 8.831 10.2237 8.563 10.2237H7.30367C6.084 10.2237 5.09534 9.221 5.09534 7.98433C5.09534 6.74766 6.084 5.74533 7.30367 5.74533H10.5517C10.8197 5.74533 11.0367 5.96533 11.0367 6.237C11.0367 6.50866 10.8197 6.729 10.5517 6.729H7.30334C6.61967 6.729 6.06534 7.291 6.06534 7.98433C6.06534 8.67766 6.61967 9.23966 7.30334 9.23966H8.56267H8.56334Z" fill="white"/>
<path d="M7.569 10.2237C7.301 10.2237 7.08367 10.0033 7.08367 9.73165C7.08367 9.45999 7.301 9.23965 7.569 9.23965H8.82833C10.048 9.23965 11.0367 10.2423 11.0367 11.479C11.0367 12.7157 10.048 13.718 8.82833 13.718H5.58C5.312 13.718 5.095 13.498 5.095 13.226C5.095 12.9543 5.312 12.7343 5.58 12.7343H8.828C9.51167 12.7343 10.066 12.1723 10.066 11.479C10.066 10.7857 9.51167 10.2237 8.828 10.2237H7.56867H7.569Z" fill="white"/>
<path d="M5.964 13.5193L5.175 12.9463L10.136 5.927L10.925 6.50034L5.964 13.5193Z" fill="white" fill-opacity="0.5"/>
<path fill-rule="evenodd" clip-rule="evenodd" d="M13.9703 10.094C13.889 10.192 13.781 10.2463 13.647 10.2563L13.639 10.818C13.8063 10.8173 13.9696 10.7667 14.108 10.6727C14.2508 10.5745 14.364 10.4392 14.4353 10.2813C14.514 10.1143 14.5533 9.92399 14.5533 9.70966C14.5562 9.52465 14.5178 9.34132 14.441 9.17299C14.3663 9.01399 14.2633 8.88966 14.133 8.80066C14.0027 8.71132 13.8547 8.66666 13.6893 8.66666C13.519 8.66666 13.3827 8.70432 13.2807 8.77966C13.179 8.85466 13.1023 8.95332 13.0523 9.07566C13.0017 9.19799 12.9597 9.34832 12.9263 9.52632C12.8927 9.70232 12.8637 9.83232 12.839 9.91632C12.8147 10.0003 12.7823 10.0653 12.7423 10.111C12.7023 10.157 12.646 10.18 12.5737 10.18C12.473 10.18 12.3957 10.142 12.3413 10.0653C12.287 9.98899 12.26 9.88699 12.26 9.75966C12.26 9.62199 12.2953 9.51132 12.3667 9.42732C12.4372 9.34346 12.5382 9.29116 12.6473 9.28199V8.72032C12.4906 8.72095 12.3379 8.76958 12.2097 8.85966C12.0803 8.95032 11.979 9.07366 11.9053 9.23032C11.8317 9.38699 11.795 9.56332 11.795 9.75966C11.795 9.95066 11.8307 10.122 11.9017 10.2737C11.9653 10.4163 12.0663 10.5391 12.194 10.629C12.318 10.7143 12.4587 10.757 12.6163 10.757C12.7893 10.757 12.9283 10.7193 13.0327 10.6443C13.1365 10.5701 13.2182 10.4691 13.269 10.352C13.3223 10.232 13.3653 10.0843 13.399 9.90866C13.4245 9.77571 13.4549 9.64373 13.49 9.51299C13.5143 9.42766 13.548 9.36166 13.5907 9.31432C13.633 9.26732 13.6907 9.24366 13.763 9.24366C13.8607 9.24057 13.9528 9.28922 14.0053 9.37166C14.0633 9.45699 14.0923 9.56732 14.0923 9.70232C14.0923 9.86532 14.0517 9.99599 13.9703 10.094ZM13.3913 12.7743H11.8183V13.3477H13.3607C13.748 13.3477 14.0437 13.2543 14.247 13.0687C14.4513 12.8827 14.5537 12.61 14.5537 12.251C14.5537 11.8917 14.4513 11.6187 14.247 11.4313C14.0433 11.244 13.7477 11.1503 13.3603 11.1503H11.8183V11.7237H13.3913C13.6107 11.7237 13.776 11.7663 13.887 11.8517C13.998 11.937 14.0537 12.07 14.0537 12.251C14.0537 12.4317 13.998 12.5643 13.887 12.6483C13.776 12.7323 13.6107 12.7743 13.3913 12.7743ZM11.8183 8.32299V7.39432C11.8183 7.12699 11.8757 6.89099 11.9907 6.68566C12.1015 6.4845 12.2684 6.31984 12.471 6.21166C12.6763 6.10099 12.911 6.04566 13.1743 6.04566C13.4377 6.04566 13.672 6.10099 13.8777 6.21166C14.0802 6.31989 14.2469 6.48455 14.3577 6.68566C14.4727 6.89066 14.53 7.12699 14.53 7.39432V8.32299H11.8183ZM13.8077 6.83099C13.9663 6.96432 14.046 7.15232 14.046 7.39432V7.74966H12.3027V7.39432C12.3027 7.15232 12.3817 6.96466 12.541 6.83066C12.6997 6.69699 12.911 6.63032 13.1743 6.63032C13.4377 6.63032 13.6487 6.69699 13.8077 6.83099Z" fill="black"/>
<path fill-rule="evenodd" clip-rule="evenodd" d="M13.9703 10.094C13.889 10.192 13.781 10.2463 13.647 10.2563L13.639 10.818C13.8063 10.8173 13.9696 10.7667 14.108 10.6727C14.2508 10.5745 14.364 10.4392 14.4353 10.2813C14.514 10.1143 14.5533 9.92399 14.5533 9.70966C14.5562 9.52465 14.5178 9.34132 14.441 9.17299C14.3663 9.01399 14.2633 8.88966 14.133 8.80066C14.0027 8.71132 13.8547 8.66666 13.6893 8.66666C13.519 8.66666 13.3827 8.70432 13.2807 8.77966C13.179 8.85466 13.1023 8.95332 13.0523 9.07566C13.0017 9.19799 12.9597 9.34832 12.9263 9.52632C12.8927 9.70232 12.8637 9.83232 12.839 9.91632C12.8147 10.0003 12.7823 10.0653 12.7423 10.111C12.7023 10.157 12.646 10.18 12.5737 10.18C12.473 10.18 12.3957 10.142 12.3413 10.0653C12.287 9.98899 12.26 9.88699 12.26 9.75966C12.26 9.62199 12.2953 9.51132 12.3667 9.42732C12.4372 9.34346 12.5382 9.29116 12.6473 9.28199V8.72032C12.4906 8.72095 12.3379 8.76958 12.2097 8.85966C12.0803 8.95032 11.979 9.07366 11.9053 9.23032C11.8317 9.38699 11.795 9.56332 11.795 9.75966C11.795 9.95066 11.8307 10.122 11.9017 10.2737C11.9653 10.4163 12.0663 10.5391 12.194 10.629C12.318 10.7143 12.4587 10.757 12.6163 10.757C12.7893 10.757 12.9283 10.7193 13.0327 10.6443C13.1365 10.5701 13.2182 10.4691 13.269 10.352C13.3223 10.232 13.3653 10.0843 13.399 9.90866C13.4245 9.77571 13.4549 9.64373 13.49 9.51299C13.5143 9.42766 13.548 9.36166 13.5907 9.31432C13.633 9.26732 13.6907 9.24366 13.763 9.24366C13.8607 9.24057 13.9528 9.28922 14.0053 9.37166C14.0633 9.45699 14.0923 9.56732 14.0923 9.70232C14.0923 9.86532 14.0517 9.99599 13.9703 10.094ZM13.3913 12.7743H11.8183V13.3477H13.3607C13.748 13.3477 14.0437 13.2543 14.247 13.0687C14.4513 12.8827 14.5537 12.61 14.5537 12.251C14.5537 11.8917 14.4513 11.6187 14.247 11.4313C14.0433 11.244 13.7477 11.1503 13.3603 11.1503H11.8183V11.7237H13.3913C13.6107 11.7237 13.776 11.7663 13.887 11.8517C13.998 11.937 14.0537 12.07 14.0537 12.251C14.0537 12.4317 13.998 12.5643 13.887 12.6483C13.776 12.7323 13.6107 12.7743 13.3913 12.7743ZM11.8183 8.32299V7.39432C11.8183 7.12699 11.8757 6.89099 11.9907 6.68566C12.1015 6.4845 12.2684 6.31984 12.471 6.21166C12.6763 6.10099 12.911 6.04566 13.1743 6.04566C13.4377 6.04566 13.672 6.10099 13.8777 6.21166C14.0802 6.31989 14.2469 6.48455 14.3577 6.68566C14.4727 6.89066 14.53 7.12699 14.53 7.39432V8.32299H11.8183ZM13.8077 6.83099C13.9663 6.96432 14.046 7.15232 14.046 7.39432V7.74966H12.3027V7.39432C12.3027 7.15232 12.3817 6.96466 12.541 6.83066C12.6997 6.69699 12.911 6.63032 13.1743 6.63032C13.4377 6.63032 13.6487 6.69699 13.8077 6.83099Z" fill="white"/>
</svg>
