<svg fill="none" xmlns="http://www.w3.org/2000/svg" viewBox="0 0 20 20">
  <path d="M10 0a10 10 0 110 20 10 10 0 010-20z" fill="#F5AC37"/>
  <path fill-rule="evenodd" clip-rule="evenodd" d="M5.64 15.51v.04h4.33a6.75 6.75 0 003.54-.91l.15-.08c.23-.17.46-.35.67-.54a5 5 0 001.31-1.91c.02-.08.1-.14.18-.12h1.19c.09 0 .12-.03.12-.14v-.76-.21l.01-.06c.01-.04.02-.08-.01-.11h-.99c-.12 0-.12-.02-.12-.12.04-.38.04-.76 0-1.14 0-.12.02-.12.11-.12h.86c.1 0 .14-.02.14-.12V8.18c0-.07 0-.1-.02-.12-.02-.02-.06-.02-.13-.02h-1.12a.16.16 0 01-.18-.13 5 5 0 00-1.16-1.78 6.1 6.1 0 00-4.07-1.69H5.76c-.12 0-.12.02-.12.12v3.37c0 .12-.03.12-.12.12H4.18c-.1 0-.1.02-.1.09v1.1c0 .1.03.1.1.1h1.36c.1 0 .1.02.1.1v1.17c0 .1-.03.1-.11.1H4.08v1.19c0 .1.03.1.1.1h1.36c.1 0 .1.01.1.1v3.41zm8.63-7.57v.1h.03c-.01.03-.08.04-.08.04h-7.2c-.13 0-.13-.02-.13-.12V5.74c0-.08.02-.11.1-.11h3.37a4.5 4.5 0 013.23 1.34c.17.17.32.37.45.58.1.12.17.26.23.4zm.3 2.77H7.04c-.15 0-.15 0-.15-.15V9.45c0-.09.03-.12.12-.12h7.56c.09 0 .12.03.12.1.03.4.03.78 0 1.17 0 .1-.04.1-.12.1zm-.3 1.3c-.1-.02-.21-.02-.32 0H7.02c-.1 0-.13 0-.13.12v2.17c0 .1 0 .13.13.13h3.2c.15 0 .3 0 .45-.04a4.76 4.76 0 001.82-.5h.04c.75-.4 1.36-1.01 1.74-1.76 0 0 .05-.1 0-.12z" fill="#FEFEFD"/>
</svg>
