<svg xmlns="http://www.w3.org/2000/svg" viewBox="0 0 48 48">
  <g fill="none" fill-rule="evenodd">
    <path d="M25.8 23.2a5.4 5.4 0 010 10.8H18a1.2 1.2 0 010-2.4h7.8a3 3 0 000-6h-3.7a5.4 5.4 0 010-10.8h8a1.2 1.2 0 010 2.4h-8a3 3 0 000 6h3.7z" fill="#FFF"/>
    <path d="M27.8 16.2a1.2 1.2 0 012.1 1v.2L20.1 33a1.2 1.2 0 01-2.1-1v-.2l9.7-15.6z" fill-opacity=".5" fill="#FFF" fill-rule="nonzero"/>
    <circle fill="#FF2C7E" cx="24" cy="24" r="24"/>
    <path d="M32 16a7.6 7.6 0 11-3 14.6l.9 2.7-2.1.7-2.1-6.7 6.9-1.7.5 2-3.4 1a5.4 5.4 0 007.7-5 5.5 5.5 0 00-10.6-2H24l1.5-2.1a7.6 7.6 0 016.4-3.6zm-10.8-2l1 6.8-7.1.7-.2-2.2 4-.4a5.5 5.5 0 102.2 6.8h2.3a7.6 7.6 0 11-4-9l-.4-2.5 2.2-.3zm12.6 8.5v2.2H14.2v-2.2h19.6z" fill="#FFF" fill-rule="nonzero"/>
  </g>
</svg>
