<svg fill="none" xmlns="http://www.w3.org/2000/svg" viewBox="0 0 52 52">
  <path fill-rule="evenodd" clip-rule="evenodd" d="M51.96 25.98a25.98 25.98 0 10-51.96 0 25.98 25.98 0 0051.96 0z" fill="#1E1A31"/>
  <path fill-rule="evenodd" clip-rule="evenodd" d="M27.98 25.13a5.82 5.82 0 010 11.65h-8.53a1.28 1.28 0 010-2.56h8.53a3.27 3.27 0 100-6.53h-4a5.82 5.82 0 010-11.65h8.53a1.28 1.28 0 010 2.56h-8.53a3.27 3.27 0 000 6.53h4z" fill="#fff"/>
  <path d="M30.1 17.52a1.3 1.3 0 012.31 1.15l-.1.21-10.4 16.9a1.3 1.3 0 01-2.32-1.15l.1-.21 10.4-16.9z" fill="#fff" fill-opacity=".5"/>
</svg>
