<svg fill="none" xmlns="http://www.w3.org/2000/svg" viewBox="0 0 20 20">
  <path fill-rule="evenodd" clip-rule="evenodd" d="M19.64 7.35c1.464 5.322-1.666 10.826-6.99 12.29C7.325 21.104 1.823 17.976.36 12.65-1.103 7.328 2.023 1.825 7.348.362a9.998 9.998 0 0112.291 6.988z" fill="#50B3B3"/>
  <path d="M7.946 6.102a1.5 1.5 0 11-2.892.796 1.5 1.5 0 012.892-.796zM7.946 13.102a1.5 1.5 0 11-2.892.796 1.5 1.5 0 012.892-.796zM13.897 14.946a1.5 1.5 0 10-.794-2.892 1.5 1.5 0 00.794 2.892zM14.946 6.102a1.5 1.5 0 11-2.892.796 1.5 1.5 0 012.892-.796zM10.53 11.928a2 2 0 10-1.06-3.856 2 2 0 001.06 3.856z" fill="#fff"/>
</svg>
